<svg version="1.1" xmlns="http://www.w3.org/2000/svg" xmlns:xlink="http://www.w3.org/1999/xlink" width="51.65102" height="87.83759" viewBox="0,0,51.65102,87.83759"><g transform="translate(-214.17485,-136.20953)"><g data-paper-data="{&quot;isPaintingLayer&quot;:true}" fill="#d4d4d4" fill-rule="nonzero" stroke-linejoin="miter" stroke-miterlimit="10" stroke-dasharray="" stroke-dashoffset="0" style="mix-blend-mode: normal"><path d="M214.44999,161.95953c0,-14.08326 11.41674,-25.5 25.5,-25.5c14.08326,0 25.5,11.41674 25.5,25.5c0,14.08326 -11.41674,25.5 -25.5,25.5c-14.08326,0 -25.5,-11.41674 -25.5,-25.5z" stroke="none" stroke-width="0" stroke-linecap="butt"/><path d="M265.07499,162.20553l0.5,58.01667c0,0 -2.61978,2.69171 -5.05577,1.64102c-1.78442,-0.76966 -3.40842,-2.57507 -4.14149,-2.82464c-0.58334,-0.19859 -2.30274,0.00189 -2.30274,0.00189c0,0 -1.18882,0.25664 -1.93929,1.17827c-0.63994,0.78589 -0.81561,2.21902 -1.24615,2.60856c-0.47177,0.42684 -2.06455,0.96317 -2.06455,0.96317c0,0 -1.06284,-0.17134 -1.86123,-1.47449c-0.606,-0.98912 -0.89009,-3.08243 -1.4217,-3.63373c-0.93505,-0.96968 -3.46707,-1.89178 -3.46707,-1.89178c0,0 -4.46447,1.5403 -4.93258,4.70787c-0.14941,1.01103 -3.06742,0.29213 -3.06742,0.29213c0,0 -1.70625,-0.16407 -2.04579,-0.98097c-0.4101,-0.98667 0.48536,-2.69627 -0.18505,-3.22797c-1.19018,-0.94394 -3.21916,-2.74106 -3.21916,-2.74106c0,0 -3.68763,1.0281 -4.74492,2.26145c-0.86056,1.00385 -2.88331,1.79431 -3.70172,2.26592c-0.77267,0.44526 -1.42305,1.30662 -2.27786,1.8836c-1.50025,1.01265 -3.47549,-2.76257 -3.47549,-2.76257l0.15,-56.28333z" stroke="#d4d4d4" stroke-width="0.5" stroke-linecap="round"/><path d="M239.94999,187.20953c-14.08326,0 -25.5,-11.41674 -25.5,-25.5c0,-14.08326 11.41674,-25.5 25.5,-25.5c14.08326,0 25.5,11.41674 25.5,25.5c0,14.08326 -11.41674,25.5 -25.5,25.5z" data-paper-data="{&quot;index&quot;:null}" stroke="none" stroke-width="0" stroke-linecap="butt"/></g></g></svg>